<?xml version="1.0" standalone="no"?>
<!DOCTYPE svg PUBLIC "-//W3C//DTD SVG 20010904//EN"
 "http://www.w3.org/TR/2001/REC-SVG-20010904/DTD/svg10.dtd">
<svg version="1.0" xmlns="http://www.w3.org/2000/svg"
 width="512pt" height="512pt" viewBox="0 0 512 512"
 preserveAspectRatio="xMidYMid meet">
<metadata>
Created by potrace 1.16, written by Peter Selinger 2001-2019
</metadata>
<g transform="translate(0.000000,512.000000) scale(0.100000,-0.100000)"
fill="#000000" stroke="none">
<path d="M2345 4931 c-47 -12 -90 -38 -119 -71 -14 -18 -26 -35 -26 -39 0 -4
-11 -21 -25 -37 -25 -29 -33 -68 -16 -78 4 -3 11 -36 15 -73 3 -37 9 -78 12
-91 5 -15 3 -22 -6 -20 -6 2 -17 -5 -23 -14 -14 -22 5 -100 34 -140 15 -21 21
-50 25 -120 l5 -93 -138 -66 c-111 -54 -152 -79 -208 -131 -56 -52 -79 -66
-113 -72 -102 -16 -209 -105 -260 -214 -20 -44 -27 -77 -30 -147 -5 -88 -6
-92 -49 -153 -64 -88 -82 -145 -93 -280 -9 -120 -27 -198 -62 -265 -11 -22
-26 -69 -33 -105 -8 -37 -24 -94 -36 -127 -30 -84 -35 -196 -15 -344 10 -68
17 -162 17 -210 -2 -251 4 -376 20 -401 9 -14 24 -49 34 -77 18 -57 35 -73
122 -117 59 -30 108 -34 117 -10 17 45 -1 84 -40 84 -18 0 -23 7 -28 43 -7 49
2 124 16 133 15 9 38 -17 38 -42 0 -13 13 -38 28 -55 24 -26 33 -31 56 -25 38
9 42 30 17 92 -13 29 -26 77 -30 106 -10 69 -31 108 -82 152 -40 34 -42 37
-36 80 10 71 43 153 100 250 72 122 86 166 102 336 15 161 21 184 65 239 17
21 48 70 69 110 l37 71 51 -72 c96 -138 98 -146 95 -287 -2 -106 0 -129 17
-160 l19 -37 -28 -66 c-27 -63 -33 -94 -31 -147 1 -17 4 -21 14 -13 7 5 21 6
32 1 43 -17 46 -10 19 42 -25 51 -26 52 -8 90 27 61 37 65 89 35 l44 -27 -52
83 c-50 79 -52 84 -52 154 0 40 3 76 8 80 4 4 20 -4 35 -17 80 -72 97 -73 41
-3 -30 38 -103 183 -96 191 2 2 36 -27 76 -64 l71 -68 0 -90 c0 -50 -4 -107
-9 -128 -7 -27 -5 -53 5 -85 13 -46 66 -122 85 -122 15 0 10 48 -12 122 -24
77 -21 135 8 155 21 16 119 17 161 2 34 -12 45 -35 61 -129 l7 -45 8 50 c11
74 25 114 46 125 10 6 44 10 75 10 31 0 65 5 76 10 18 10 19 7 19 -37 0 -26
-11 -93 -24 -148 -14 -55 -23 -102 -21 -104 7 -7 65 93 85 146 11 30 20 69 20
88 0 19 9 58 20 87 26 69 25 80 -4 43 l-24 -30 13 67 c11 60 18 71 69 124 l56
59 -5 -55 c-5 -43 -1 -74 19 -139 40 -130 32 -179 -41 -269 l-36 -44 40 20 39
20 17 -48 c9 -26 17 -53 17 -59 0 -6 -25 -41 -55 -76 -45 -53 -95 -131 -95
-148 0 -2 17 13 39 33 21 20 58 46 82 58 l43 22 13 -23 c7 -12 18 -47 25 -77
10 -44 13 -49 16 -27 2 15 -3 51 -11 80 -8 28 -18 68 -21 87 -3 20 -17 71 -31
114 l-25 78 22 31 c32 44 35 117 8 218 -14 56 -19 98 -15 125 6 43 15 56 127
194 55 67 69 78 74 63 21 -60 46 -105 85 -153 41 -51 47 -64 68 -170 30 -150
68 -239 147 -345 93 -122 127 -197 136 -295 3 -34 1 -36 -65 -69 -62 -30 -70
-38 -97 -91 -16 -33 -36 -62 -44 -67 -8 -4 -21 -26 -30 -48 -17 -39 -16 -40 5
-57 36 -30 45 -26 113 53 36 42 68 1 50 -63 -8 -25 -17 -33 -54 -45 -48 -14
-84 -52 -74 -77 6 -16 58 -46 80 -46 7 0 49 14 93 32 67 26 91 41 139 92 l59
61 12 115 c7 63 14 142 16 175 l5 60 -15 -50 c-8 -27 -17 -86 -19 -130 -7
-103 -29 -175 -63 -206 l-26 -24 16 25 c9 13 17 31 17 39 0 22 -56 -35 -76
-78 -10 -20 -19 -30 -21 -24 -3 7 5 29 17 49 17 26 23 54 25 102 1 37 5 83 9
102 5 27 4 30 -3 13 -6 -12 -17 -56 -26 -98 -15 -75 -67 -185 -87 -185 -7 0
-8 16 -4 43 16 105 16 123 0 159 l-17 37 -38 -30 c-21 -16 -41 -39 -44 -49
-13 -42 -75 -49 -75 -8 0 10 15 33 34 51 19 18 43 53 54 78 18 43 25 48 89 73
111 42 107 36 94 152 -6 54 -24 145 -39 201 -27 96 -32 104 -82 150 -50 46
-52 51 -52 98 0 89 32 221 68 282 39 64 39 65 17 61 -12 -2 -19 6 -23 27 l-6
30 -7 -37 c-10 -49 -19 -53 -64 -29 -56 29 -90 69 -144 173 -26 51 -49 90 -49
87 0 -12 38 -116 55 -150 10 -19 31 -52 47 -74 l30 -40 -40 43 c-41 44 -104
162 -147 277 -29 75 -32 72 75 52 88 -17 108 -12 133 30 19 34 21 34 35 17 29
-39 60 -111 76 -178 33 -132 47 -140 21 -11 -19 89 -37 135 -77 193 -27 39
-30 49 -24 93 14 107 -30 239 -110 328 -49 55 -149 111 -197 111 -22 0 -45 15
-93 59 -49 46 -94 75 -199 126 l-135 66 0 79 c0 68 3 82 23 107 41 49 64 161
36 178 -17 11 -23 -3 -9 -20 18 -22 -8 -135 -32 -135 -12 0 -10 22 7 54 17 32
20 91 5 81 -6 -4 -7 2 -1 17 5 13 17 66 27 117 17 91 17 94 -2 130 -12 22 -35
44 -61 57 -24 12 -59 36 -78 53 -57 50 -158 72 -240 52z m177 -32 c28 -14 68
-50 68 -60 0 -5 -16 3 -36 16 -68 46 -144 56 -229 31 -55 -17 -47 -2 11 20 44
16 149 12 186 -7z m-6 -45 c46 -24 86 -86 67 -105 -10 -10 -14 -7 -22 12 -30
78 -132 109 -246 74 -27 -8 -51 -13 -53 -10 -5 4 53 35 88 46 40 13 123 4 166
-17z m-91 -38 c36 -16 55 -42 55 -78 0 -21 -2 -20 -16 9 -30 61 -113 69 -182
17 l-37 -27 25 28 c22 24 91 64 113 65 4 0 23 -6 42 -14z m95 -26 c5 -10 10
-29 10 -42 -1 -19 -3 -17 -16 12 -8 19 -23 43 -32 54 -16 18 -16 18 5 7 13 -6
27 -20 33 -31z m168 -8 l14 -22 -33 14 c-39 17 -52 39 -19 34 13 -1 29 -13 38
-26z m-273 -22 c4 -6 -8 -10 -30 -10 -48 0 -71 -13 -83 -48 -12 -34 -72 -83
-72 -58 0 8 9 18 20 21 11 4 27 21 34 39 8 19 24 41 37 50 26 18 84 22 94 6z
m267 -18 c10 -8 17 -25 16 -38 -2 -23 -3 -23 -35 8 -36 35 -44 61 -15 51 9 -3
25 -13 34 -21z m-435 -49 c-3 -10 -5 -4 -5 12 0 17 2 24 5 18 2 -7 2 -21 0
-30z m168 -8 c40 -14 50 -14 96 -1 49 15 53 15 80 -5 19 -13 31 -32 35 -57 4
-20 15 -54 26 -76 21 -40 21 -96 0 -231 -12 -81 -16 -89 -74 -135 -49 -39 -53
-40 -128 -40 -63 0 -82 4 -104 21 -35 27 -56 70 -56 112 0 23 -12 53 -35 87
-39 58 -46 110 -20 160 19 37 49 45 100 26 l40 -14 -43 1 c-29 1 -47 -4 -60
-17 -16 -18 -16 -18 10 -12 22 5 26 3 22 -9 -5 -11 1 -15 19 -15 14 0 29 5 32
10 4 6 11 8 16 5 5 -4 9 -1 9 6 0 7 6 4 14 -6 15 -21 11 -80 -7 -102 -14 -18
-1 -43 23 -43 12 0 20 -7 20 -17 1 -17 1 -17 14 -1 7 10 25 22 40 28 24 9 26
13 15 26 -8 10 -15 12 -17 5 -5 -15 -42 -14 -47 2 -3 6 -1 44 4 82 5 39 5 77
0 85 -7 13 -8 12 -9 -2 0 -16 -5 -15 -57 3 -32 11 -66 18 -75 15 -32 -8 -23
54 13 92 34 37 41 38 104 17z m244 -11 c14 -18 21 -40 20 -68 l-1 -41 -12 43
c-6 25 -23 54 -39 68 -25 21 -26 24 -8 24 11 0 29 -12 40 -26z m-13 -576 c-4
-62 -14 -137 -23 -165 -9 -29 -14 -55 -11 -58 2 -3 52 0 109 6 57 5 129 13
159 16 l55 6 -96 32 c-159 54 -169 63 -169 146 l0 60 132 -68 c104 -52 146
-80 193 -127 l60 -59 -55 -9 c-30 -5 -69 -17 -88 -28 -24 -15 -53 -20 -105
-21 l-72 -1 52 -9 c29 -5 74 -17 101 -27 46 -18 49 -18 45 -2 -6 23 42 60 78
60 38 0 59 9 59 26 0 40 145 -21 204 -86 79 -88 121 -230 98 -331 -24 -102
-57 -107 -103 -16 -48 94 -94 162 -141 207 -67 66 -89 68 -27 4 59 -62 105
-125 133 -184 l17 -35 -21 27 c-11 15 -38 37 -58 49 -20 12 -50 34 -65 48 -23
21 -27 22 -21 7 6 -16 4 -18 -17 -13 l-24 6 25 -18 c21 -17 23 -22 13 -44 -66
-144 -313 -219 -484 -146 -94 41 -119 94 -119 254 0 144 27 181 160 212 l55
13 -62 -4 c-66 -4 -102 -23 -155 -81 -23 -25 -27 -27 -28 -11 0 11 -3 16 -6
13 -4 -4 -22 7 -40 23 -55 48 -118 61 -295 59 -140 -1 -160 1 -197 20 -23 12
-50 21 -62 21 -32 0 -24 15 44 77 58 53 204 140 291 173 l29 11 -19 -22 c-11
-12 -73 -61 -137 -110 -64 -49 -119 -93 -123 -99 -4 -6 24 -10 82 -10 127 -1
228 -16 291 -45 30 -14 56 -24 57 -23 2 2 -19 63 -47 137 -27 73 -48 137 -46
142 2 5 36 -61 76 -148 40 -87 77 -165 81 -173 14 -26 36 -16 45 20 7 30 4 45
-23 98 -44 86 -41 102 22 150 28 23 79 68 112 101 33 34 61 61 64 61 2 0 1
-51 -3 -112z m-791 -249 c23 -7 55 -27 75 -48 l36 -38 39 21 c35 18 58 21 175
21 163 0 200 -13 240 -85 23 -41 25 -55 25 -177 0 -126 -1 -132 -25 -158 -43
-48 -101 -67 -199 -66 -127 0 -207 22 -292 78 -43 28 -79 79 -79 111 0 12 15
38 33 59 26 31 28 34 7 20 -45 -31 -54 -21 -26 31 l26 47 -38 -44 c-20 -24
-63 -69 -95 -101 l-58 -58 6 41 c18 108 84 214 149 243 20 8 24 13 13 14 -80
1 -181 -116 -201 -235 -5 -27 -22 -56 -52 -89 -51 -56 -54 -55 -79 28 -43 142
11 289 135 364 59 35 112 41 185 21z m-304 -559 c16 0 46 7 66 15 52 22 118
20 143 -5 45 -45 11 -255 -60 -361 -56 -86 -135 -103 -178 -39 -21 31 -23 44
-20 115 2 67 9 92 36 147 18 36 48 80 68 97 24 22 30 31 18 31 -43 0 -163
-185 -180 -278 -9 -45 9 -155 42 -258 13 -42 24 -91 24 -108 0 -30 -42 -106
-59 -106 -5 0 -14 37 -21 83 -7 45 -16 89 -21 97 -10 18 -10 -146 0 -280 4
-52 4 -103 -1 -112 -5 -10 -11 -93 -14 -185 -6 -185 -7 -179 59 -227 45 -33
77 -92 77 -141 0 -20 11 -63 25 -96 27 -63 26 -79 -6 -79 -20 0 -27 12 -65
114 -21 53 -50 78 -38 32 5 -20 2 -26 -10 -26 -26 0 -39 -41 -39 -120 1 -68
-6 -89 -28 -90 -4 0 -17 29 -30 65 -12 35 -26 62 -30 59 -5 -2 -16 10 -25 28
-15 29 -18 30 -24 14 -3 -11 -7 16 -8 59 -2 43 -8 110 -14 149 -6 39 -12 130
-13 201 -2 72 -8 159 -14 195 -12 73 -13 239 -1 285 5 18 6 1 3 -45 -5 -69 9
-238 24 -284 5 -18 6 -18 19 5 13 23 13 21 13 -26 1 -27 -7 -89 -17 -137 -12
-57 -15 -95 -9 -110 8 -22 9 -21 23 17 23 66 29 295 11 395 -9 47 -19 110 -22
140 -9 75 11 213 42 285 14 33 25 70 24 83 0 13 5 33 11 45 7 12 13 24 13 27
1 3 7 23 13 45 6 22 11 77 11 121 -1 87 12 131 58 197 l26 37 34 -35 c24 -25
43 -35 64 -35z m951 15 c48 -41 104 -61 213 -76 92 -13 161 -6 224 22 24 10
45 19 46 19 2 0 6 -33 10 -72 7 -85 -8 -149 -50 -204 l-27 -35 -15 21 c-15 22
-16 21 -33 -17 -10 -21 -38 -60 -63 -88 -44 -48 -46 -49 -47 -23 -1 62 -33 81
-44 25 -3 -19 -20 -47 -37 -63 -27 -26 -37 -29 -94 -29 -77 0 -115 27 -115 81
0 54 37 75 126 72 65 -3 75 0 98 21 14 14 26 33 26 44 0 19 -1 19 -19 3 -49
-44 -154 -24 -191 36 -58 95 10 125 153 68 105 -42 164 -36 227 23 45 43 36
51 -19 17 -60 -37 -86 -37 -169 -1 -37 16 -96 35 -130 42 -57 12 -67 12 -94
-4 -21 -12 -34 -14 -48 -7 -38 20 -118 11 -211 -25 -101 -39 -127 -42 -169
-20 -26 14 -70 60 -70 74 0 3 64 6 143 6 125 1 149 3 201 24 34 13 74 39 95
61 20 21 38 39 39 39 2 1 22 -15 44 -34z m398 -6 c0 -5 -7 -9 -15 -9 -15 0
-20 12 -9 23 8 8 24 -1 24 -14z m-842 -1 c-7 -19 -38 -22 -38 -4 0 10 9 16 21
16 12 0 19 -5 17 -12z m349 -180 c37 -30 -15 -103 -93 -128 -68 -23 -192 4
-207 45 -10 24 3 45 32 51 14 2 67 16 116 29 88 23 127 24 152 3z m-400 -8
c14 -11 32 -20 39 -20 24 0 25 -20 3 -59 l-22 -39 37 -67 c20 -37 36 -71 34
-75 -2 -5 -33 14 -70 40 -47 35 -70 60 -79 85 -8 20 -16 30 -20 24 -13 -21
-41 37 -37 78 l3 38 14 -28 c22 -42 73 -70 105 -57 32 12 32 17 1 42 -25 20
-51 58 -39 58 3 0 17 -9 31 -20z m405 -197 c21 -19 24 -72 5 -97 -18 -25 -86
-37 -143 -27 -53 10 -94 46 -94 83 0 21 -1 21 -14 3 -13 -18 -14 -18 -24 2
-17 31 9 47 87 54 88 9 162 1 183 -18z m1008 -72 c0 -12 -25 -71 -30 -71 -3 0
-22 17 -43 38 l-36 37 54 0 c30 0 55 -2 55 -4z m-1796 -98 c-11 -46 -32 -86
-62 -121 l-30 -34 0 66 0 65 41 25 c55 31 59 31 51 -1z m772 2 c44 -9 40 -86
-7 -110 -78 -41 -179 14 -179 99 0 24 0 24 83 19 45 -2 92 -6 103 -8z m300 0
c10 -25 -5 -66 -37 -97 -28 -28 -34 -30 -91 -26 -74 5 -101 30 -96 87 l3 36
80 6 c44 3 93 6 108 7 17 1 30 -4 33 -13z m-1136 -285 c-6 -36 -32 -110 -57
-165 -25 -55 -56 -134 -69 -175 -13 -41 -23 -68 -23 -60 -1 15 43 283 54 336
l7 29 -21 -25 c-11 -14 -21 -29 -21 -34 0 -5 -2 -7 -5 -4 -4 3 -1 35 5 71 9
50 17 67 35 77 12 6 40 33 61 59 l39 46 3 -45 c2 -24 -2 -74 -8 -110z m-153
-467 c-3 -10 -5 -2 -5 17 0 19 2 27 5 18 2 -10 2 -26 0 -35z m2053 -311 c0
-11 -46 -32 -68 -32 -10 1 -3 9 18 20 39 21 50 24 50 12z m-2130 -160 c0 -19
-20 -4 -29 21 -23 60 -21 71 3 32 14 -22 26 -46 26 -53z m142 -45 c16 -25 7
-27 -32 -7 -22 11 -40 23 -40 26 0 11 64 -6 72 -19z"/>
<path d="M2531 4565 c-61 -10 -85 -25 -62 -39 6 -4 18 -2 28 3 10 5 43 16 72
23 71 18 45 27 -38 13z"/>
<path d="M2495 4520 c-13 -21 20 -36 65 -30 11 1 10 4 -5 11 -15 7 -11 8 18 5
27 -4 37 -1 34 7 -5 16 -103 22 -112 7z"/>
<path d="M2404 4301 c-2 -3 -17 -5 -31 -6 -15 0 -28 -6 -31 -14 -4 -11 3 -13
28 -8 18 4 69 7 114 8 68 1 75 2 46 10 -43 11 -118 17 -126 10z"/>
<path d="M2386 4251 c-10 -15 21 -32 48 -26 83 17 82 17 61 25 -27 12 -103 12
-109 1z"/>
<path d="M2566 3997 c-31 -71 -66 -167 -66 -185 0 -13 6 -11 27 11 22 21 31
46 45 119 10 50 16 93 15 94 -1 1 -10 -16 -21 -39z"/>
<path d="M3153 3753 c20 -21 50 -63 66 -93 36 -65 41 -47 7 25 -22 49 -75 105
-99 105 -6 0 5 -17 26 -37z"/>
<path d="M1360 2975 c-7 -9 -8 -15 -2 -15 5 0 12 7 16 15 3 8 4 15 2 15 -2 0
-9 -7 -16 -15z"/>
<path d="M1316 2074 c-10 -25 -7 -112 4 -119 6 -4 10 20 10 64 0 72 -3 84 -14
55z"/>
<path d="M1311 1760 c0 -25 6 -58 14 -75 17 -39 18 -16 1 60 l-14 60 -1 -45z"/>
<path d="M2867 3083 c-55 -48 -58 -60 -12 -49 24 6 83 81 73 92 -3 3 -30 -17
-61 -43z"/>
<path d="M3414 3205 c17 -69 76 -175 131 -234 58 -64 95 -133 133 -251 34
-104 44 -182 51 -390 l7 -195 8 165 c7 135 5 182 -8 259 -30 170 -94 327 -175
427 -27 33 -70 101 -96 150 -53 101 -61 111 -51 69z"/>
<path d="M3530 2809 c-7 -31 -10 -63 -8 -70 3 -8 11 12 17 44 7 31 11 63 8 70
-2 6 -10 -13 -17 -44z"/>
<path d="M3582 2678 c-24 -103 -22 -114 22 -208 l26 -55 -3 155 c-2 85 -8 166
-13 178 -9 21 -13 10 -32 -70z"/>
<path d="M3627 2306 c-10 -70 -9 -194 3 -201 17 -11 23 45 14 148 -9 97 -10
99 -17 53z"/>
<path d="M2115 2283 c6 -5 38 -36 73 -68 34 -32 62 -55 62 -51 0 14 -85 98
-114 113 -17 8 -26 11 -21 6z"/>
<path d="M2769 2233 c-36 -41 -56 -68 -42 -60 13 8 77 87 71 87 -2 0 -15 -12
-29 -27z"/>
<path d="M2224 2136 c9 -26 36 -196 36 -223 0 -13 -4 -23 -9 -23 -4 0 -36 33
-70 73 -33 41 -82 89 -108 107 l-47 34 21 -34 c11 -19 24 -49 27 -66 4 -18 21
-54 38 -80 29 -45 32 -59 40 -169 10 -133 26 -209 64 -293 84 -186 102 -316
65 -477 -17 -74 -20 -80 -16 -35 8 75 -8 142 -66 275 -60 142 -75 199 -94 366
-15 130 -63 430 -69 437 -5 5 4 -248 14 -388 7 -90 6 -126 -2 -131 -7 -5 -10
-38 -8 -96 2 -48 3 -115 4 -148 l1 -60 -55 0 c-30 0 -60 -4 -67 -8 -16 -10
-58 73 -78 155 -22 90 -30 285 -16 398 10 81 28 179 56 305 13 58 -14 3 -45
-93 -42 -130 -62 -264 -62 -422 1 -157 16 -241 67 -364 32 -78 35 -93 35 -187
0 -86 -5 -117 -31 -198 -40 -124 -47 -234 -25 -356 19 -101 47 -196 78 -261
27 -59 43 -67 19 -10 -11 24 -32 93 -48 153 -24 93 -28 126 -28 243 1 118 4
145 26 210 l25 75 18 -34 c13 -24 16 -46 12 -80 -17 -138 -18 -278 -1 -360 16
-79 43 -167 44 -146 1 6 -6 42 -14 80 -31 150 -37 263 -21 384 12 86 14 131 6
194 -5 45 -12 105 -15 132 l-6 50 30 -57 c34 -64 63 -88 103 -88 41 0 42 16 3
40 -40 25 -71 64 -80 103 -6 23 -3 28 20 37 14 5 37 10 51 10 22 0 23 2 14 21
-9 15 -9 28 -1 47 14 35 16 64 8 137 l-7 60 18 -35 c10 -19 44 -80 74 -135 62
-111 97 -205 99 -262 2 -95 14 -89 38 17 13 58 45 162 72 231 63 165 68 191
69 334 1 130 13 138 23 15 8 -93 33 -183 90 -325 25 -60 55 -146 66 -190 12
-44 34 -115 48 -158 l25 -78 -21 -78 c-42 -155 -26 -261 64 -441 75 -149 79
-117 8 64 -50 128 -57 182 -42 295 l12 95 29 -35 c28 -33 28 -32 -7 36 -30 58
-37 88 -47 177 -16 145 -3 239 63 453 90 293 113 421 107 590 l-3 90 -17 -45
c-38 -101 -109 -354 -137 -485 -16 -77 -36 -158 -44 -180 l-14 -40 -20 40
c-33 64 -70 176 -78 231 -6 50 -6 52 40 105 38 45 181 309 167 309 -2 0 -12
-10 -23 -22 -19 -23 -19 -23 -3 17 9 22 22 47 28 55 32 37 25 42 -11 7 -21
-20 -58 -76 -82 -123 -56 -111 -95 -139 -188 -138 -47 0 -71 6 -91 20 -37 27
-72 99 -72 149 -1 63 -18 121 -51 173 -17 26 -28 39 -25 28z m116 -503 c27
-21 52 -49 56 -62 15 -54 -42 -341 -68 -341 -4 0 -8 16 -8 36 0 20 -20 96 -45
170 -40 119 -45 142 -45 225 l0 92 30 -41 c16 -23 52 -59 80 -79z"/>
<path d="M2926 2060 c4 -14 18 -65 30 -115 12 -49 22 -79 23 -65 1 36 -26 147
-44 178 -16 27 -16 27 -9 2z"/>
<path d="M3701 1933 c-6 -32 -15 -73 -20 -90 -6 -20 -5 -33 0 -33 5 0 9 1 9 3
0 1 7 40 15 86 8 47 13 86 11 89 -2 2 -9 -23 -15 -55z"/>
<path d="M3025 1945 c2 -16 14 -82 27 -145 30 -158 32 -434 4 -528 -18 -61
-67 -142 -85 -142 -17 0 -32 93 -26 156 7 61 -15 174 -33 174 -4 0 -16 -54
-27 -121 -15 -95 -16 -127 -7 -151 6 -16 8 -36 6 -43 -4 -8 10 -24 34 -39 l40
-25 7 -91 c6 -75 4 -94 -9 -115 -9 -14 -25 -25 -34 -25 -27 0 -92 76 -92 108
0 5 18 14 41 21 45 14 55 29 43 69 -7 26 -8 26 -12 4 -5 -34 -74 -65 -129 -59
-42 4 -43 4 -53 -33 -14 -51 -4 -89 47 -195 48 -98 48 -95 19 -233 -23 -108
-12 -174 50 -302 43 -90 46 -94 61 -75 12 16 14 44 10 145 -3 103 -9 139 -32
204 -26 76 -27 80 -11 113 21 45 21 56 -10 141 -15 40 -24 75 -21 78 13 13 88
-38 106 -74 l20 -37 2 45 c1 25 4 35 6 23 2 -13 9 -23 14 -23 5 0 9 58 9 133
1 84 6 143 14 162 12 28 13 21 19 -80 5 -84 14 -131 37 -200 62 -184 74 -326
40 -495 -21 -105 -21 -106 -11 -89 19 30 51 218 51 298 0 99 -13 160 -57 276
-29 76 -35 107 -40 200 -5 103 -4 114 21 174 66 162 73 370 21 596 -16 66 -28
129 -29 140 -1 11 -4 22 -7 25 -3 3 -11 19 -18 35 l-11 30 5 -30z"/>
<path d="M3081 1814 c0 -11 3 -14 6 -6 3 7 2 16 -1 19 -3 4 -6 -2 -5 -13z"/>
<path d="M1771 1754 c0 -11 3 -14 6 -6 3 7 2 16 -1 19 -3 4 -6 -2 -5 -13z"/>
<path d="M3101 1734 c0 -11 3 -14 6 -6 3 7 2 16 -1 19 -3 4 -6 -2 -5 -13z"/>
<path d="M3111 1684 c0 -11 3 -14 6 -6 3 7 2 16 -1 19 -3 4 -6 -2 -5 -13z"/>
<path d="M2128 920 c-4 -53 -9 -67 -32 -87 -15 -12 -38 -23 -51 -23 -28 0 -65
43 -65 76 0 13 -4 24 -10 24 -11 0 -14 -228 -3 -257 5 -13 11 -4 23 37 17 59
60 100 105 100 31 0 37 -22 19 -67 -10 -23 -14 -53 -10 -82 18 -159 16 -255
-9 -365 -14 -60 -23 -111 -21 -114 3 -2 11 7 19 20 8 12 43 67 77 122 82 131
94 167 87 270 -3 44 -11 99 -18 121 -10 34 -13 37 -20 20 -11 -28 -11 -37 0
-30 13 7 25 -116 18 -177 -4 -28 -18 -70 -32 -94 -25 -43 -40 -58 -29 -30 3 7
-4 62 -15 120 -28 142 -27 183 6 253 14 32 28 78 30 103 3 40 -1 50 -30 84
l-34 39 -5 -63z"/>
<path d="M2994 708 c14 -82 36 -310 37 -378 1 -132 21 -33 23 115 1 112 -2
141 -23 208 -25 81 -46 113 -37 55z"/>
<path d="M2202 650 c0 -14 2 -19 5 -12 2 6 2 18 0 25 -3 6 -5 1 -5 -13z"/>
</g>
</svg>