<?xml version="1.0" standalone="no"?>
<!DOCTYPE svg PUBLIC "-//W3C//DTD SVG 20010904//EN"
 "http://www.w3.org/TR/2001/REC-SVG-20010904/DTD/svg10.dtd">
<svg version="1.0" xmlns="http://www.w3.org/2000/svg"
 width="512.000000pt" height="512.000000pt" viewBox="0 0 512.000000 512.000000"
 preserveAspectRatio="xMidYMid meet">
<metadata>
Created by potrace 1.16, written by Peter Selinger 2001-2019
</metadata>
<g transform="translate(0.000000,512.000000) scale(0.100000,-0.100000)"
fill="#000000" stroke="none">
<path d="M2552 4799 c-64 -32 -95 -85 -95 -158 1 -33 8 -71 17 -89 9 -17 16
-41 15 -54 -1 -18 -3 -17 -8 8 -10 41 -19 54 -37 54 -26 0 -18 -73 11 -100 19
-18 25 -33 25 -67 0 -25 -4 -52 -10 -62 -5 -10 -45 -33 -89 -51 -44 -18 -104
-51 -133 -74 -45 -34 -62 -41 -118 -46 -36 -4 -82 -14 -102 -24 -83 -40 -147
-136 -164 -249 -4 -23 -18 -56 -30 -73 -39 -50 -54 -99 -54 -172 0 -103 -8
-126 -61 -187 -108 -124 -137 -211 -150 -450 -5 -93 -14 -204 -21 -245 -6 -41
-12 -128 -12 -192 -1 -87 -5 -120 -15 -130 -12 -11 -13 -10 -8 4 3 9 8 45 11
80 l6 63 -24 -90 c-27 -100 -31 -147 -16 -226 9 -49 16 -60 77 -116 70 -65 78
-69 88 -53 3 5 12 7 20 4 17 -7 38 31 30 56 -3 10 -1 21 5 25 17 10 11 66 -11
101 -27 44 -24 119 5 119 13 0 23 -11 31 -34 16 -48 55 -77 84 -62 26 14 26
26 0 96 -11 30 -18 64 -14 74 8 25 -14 67 -54 105 -25 24 -31 38 -31 73 0 86
46 190 144 323 52 70 76 139 76 216 0 61 13 100 43 132 12 13 47 73 77 135 31
61 62 113 70 115 9 1 25 -16 39 -43 15 -28 40 -55 68 -72 29 -19 51 -44 68
-76 25 -51 25 -56 -8 -125 -16 -36 -19 -56 -14 -114 4 -51 2 -76 -8 -92 -7
-11 -25 -65 -39 -120 -15 -54 -51 -160 -80 -235 -30 -75 -57 -154 -60 -176 -4
-24 7 -3 27 55 33 96 112 266 102 220 -3 -14 -22 -95 -42 -180 -34 -144 -37
-167 -38 -315 0 -170 6 -202 61 -320 l23 -50 -28 33 c-36 42 -87 146 -117 237
l-23 70 5 -70 c7 -89 26 -165 64 -262 22 -55 34 -107 41 -178 10 -106 6 -133
-40 -257 -34 -94 -29 -179 19 -318 86 -246 112 -348 108 -435 -2 -50 2 -92 10
-111 12 -28 16 -30 36 -21 22 11 23 15 19 102 -3 49 -21 164 -40 255 -71 338
-68 310 -44 560 l6 65 21 -55 c12 -30 24 -62 27 -70 3 -8 6 22 6 67 1 70 -2
82 -17 87 -27 9 -49 55 -56 122 -6 55 -5 62 18 83 22 21 28 22 60 11 93 -30
122 -145 55 -216 -21 -23 -39 -104 -38 -173 l1 -46 15 55 c14 53 55 120 72
120 5 0 0 -35 -11 -78 -19 -71 -20 -96 -14 -311 3 -129 9 -273 12 -320 11
-138 -4 -89 -25 89 -12 91 -27 194 -36 230 -10 47 -13 52 -9 20 13 -107 24
-272 24 -364 0 -96 1 -99 31 -134 27 -31 30 -39 23 -71 -16 -71 -10 -123 19
-166 30 -43 35 -86 13 -104 -23 -19 -67 -18 -80 2 -9 15 -6 22 17 41 34 28 34
36 -1 36 -33 0 -72 -33 -72 -60 0 -12 -7 -20 -16 -20 -13 0 -15 7 -9 40 4 24
3 40 -3 40 -13 0 -42 -45 -42 -65 0 -8 -6 -15 -14 -15 -11 0 -13 7 -6 30 5 16
11 34 15 40 3 5 2 10 -2 10 -15 0 -33 -23 -33 -41 0 -10 -4 -21 -10 -24 -6 -4
-10 8 -10 28 0 29 7 38 57 73 31 21 63 50 72 64 l15 25 -24 -21 c-24 -21 -37
-22 -282 -26 -233 -4 -281 -8 -266 -23 2 -3 76 -11 164 -20 202 -19 208 -20
199 -54 -14 -58 -11 -65 29 -85 58 -28 270 -34 341 -9 58 21 70 47 31 64 -19
9 -26 20 -26 39 0 25 4 28 46 34 26 3 100 6 166 6 162 0 268 28 173 46 -28 5
-36 12 -45 40 -8 24 -23 40 -51 54 -47 24 -62 47 -84 123 -21 75 -30 67 -15
-13 15 -85 28 -109 67 -125 32 -14 59 -57 47 -76 -10 -17 -24 -9 -24 16 0 14
-8 29 -21 35 -19 10 -20 10 -10 -9 15 -28 14 -51 -4 -51 -8 0 -15 8 -15 18 0
21 -29 52 -48 52 -16 0 -15 -10 4 -31 9 -10 14 -25 11 -34 -9 -21 -51 -19 -72
5 -16 17 -17 32 -11 132 9 143 10 148 46 148 36 0 50 23 50 83 0 54 57 173
164 341 98 156 107 193 77 327 -21 92 -21 98 -5 175 9 43 39 134 66 201 27 67
56 157 64 200 33 162 13 509 -40 693 -14 47 -30 122 -37 167 -11 74 -11 86 6
122 22 49 17 107 -13 171 l-22 45 5 -40 c19 -154 21 -141 -19 -181 -20 -20
-39 -34 -42 -31 -3 3 0 22 6 43 7 21 20 92 30 159 l17 122 52 64 c29 35 57 68
62 73 14 16 56 -21 88 -77 17 -30 50 -75 73 -102 37 -41 43 -56 50 -112 10
-86 41 -150 123 -253 75 -94 151 -218 160 -261 6 -24 1 -34 -29 -63 -23 -21
-36 -43 -36 -59 0 -14 -4 -29 -10 -32 -5 -3 -10 -22 -10 -41 0 -19 -5 -43 -12
-53 -9 -15 -9 -23 2 -36 20 -25 53 -14 70 22 18 39 38 39 59 1 15 -25 14 -29
-8 -52 -18 -19 -22 -31 -17 -51 6 -25 31 -43 43 -31 9 9 12 200 3 211 -4 5
-12 26 -17 45 l-9 35 -28 -47 c-15 -26 -32 -63 -37 -83 -6 -19 -14 -35 -19
-35 -13 0 -13 17 1 26 6 3 8 17 5 30 -12 45 14 111 57 150 39 36 40 37 44 118
2 44 8 146 15 226 9 126 9 153 -5 200 -9 30 -22 64 -30 74 -13 17 -13 14 -6
-30 4 -27 8 -71 8 -99 0 -49 -1 -48 -24 40 -13 50 -24 94 -25 99 0 5 -2 7 -6
4 -3 -3 6 -57 20 -119 13 -63 27 -148 30 -189 3 -41 8 -86 11 -100 6 -26 -45
99 -96 234 -16 44 -36 123 -44 177 -14 100 -38 159 -51 126 -3 -9 -4 -59 -2
-111 l3 -94 -26 19 c-14 10 -32 26 -40 35 -13 16 -11 17 20 12 l34 -5 -6 81
c-4 70 -52 254 -63 243 -2 -2 5 -44 16 -92 10 -49 17 -91 14 -94 -7 -8 -55 43
-81 86 -24 41 -103 227 -103 242 0 5 20 4 45 -2 61 -14 101 -56 137 -142 16
-38 26 -56 23 -40 -5 24 -32 86 -73 168 -2 4 5 7 15 7 46 0 60 72 22 106 -12
10 -30 32 -39 47 l-18 29 4 -49 4 -48 -15 52 c-25 88 -88 169 -148 192 -16 6
-81 10 -145 10 l-117 -2 107 -8 c136 -9 187 -30 227 -94 28 -44 49 -120 38
-132 -9 -8 -91 44 -152 97 -66 58 -134 96 -191 104 -33 6 -29 3 25 -18 35 -14
73 -34 85 -46 l21 -21 -40 6 -40 6 41 -19 c37 -18 74 -54 74 -74 0 -3 -15 -2
-32 3 -51 14 -56 10 -15 -13 42 -25 46 -42 18 -97 -54 -105 -163 -151 -286
-120 -60 15 -87 47 -93 109 -4 46 -2 54 24 81 26 27 26 29 7 29 -25 0 -33 18
-33 76 0 80 23 97 152 113 63 8 63 8 15 10 -57 1 -150 -23 -167 -44 -16 -20
-39 -19 -64 3 -21 17 -21 17 -3 -4 11 -14 17 -38 17 -73 0 -65 -13 -91 -45
-91 -34 0 -31 -10 10 -43 29 -23 35 -34 35 -65 -1 -93 -51 -125 -190 -120
-103 4 -137 16 -188 68 -17 16 -38 50 -48 75 -14 39 -15 52 -5 86 15 51 69
110 121 134 22 10 39 20 37 22 -6 6 -71 -20 -100 -39 -15 -11 -33 -18 -40 -15
-14 5 -83 -28 -139 -67 -21 -14 -38 -20 -38 -14 0 6 16 41 36 77 39 71 19 65
-28 -8 -15 -25 -28 -38 -28 -30 0 34 60 108 107 133 l48 25 -41 1 c-50 0 -125
-45 -154 -92 -12 -20 -20 -27 -20 -16 0 28 63 100 110 125 47 25 60 26 165 4
28 -6 100 -15 160 -21 61 -5 121 -13 135 -15 l25 -6 -24 11 c-14 6 -52 13 -85
17 -34 3 -68 10 -76 15 -26 16 133 1 175 -16 21 -9 40 -14 43 -11 5 4 -14 112
-25 144 -16 45 17 -13 47 -82 18 -43 38 -76 43 -74 6 2 21 37 34 78 27 89 27
83 7 75 -42 -16 -27 10 32 55 37 27 69 48 71 45 3 -3 0 -40 -7 -83 -7 -43 -15
-93 -18 -112 l-5 -34 63 6 c35 4 77 7 94 8 26 0 28 2 11 9 -11 5 -36 9 -56 9
-41 1 -56 23 -65 95 -8 70 2 73 97 28 46 -23 106 -59 133 -81 41 -35 55 -41
95 -41 30 0 65 -9 99 -26 95 -47 151 -137 160 -257 4 -55 12 -81 37 -124 23
-37 35 -73 40 -114 9 -74 2 -86 -14 -24 -14 57 -25 59 -16 3 9 -54 22 -74 88
-137 102 -96 141 -201 157 -416 8 -109 17 -158 40 -226 35 -100 34 -97 16
-101 -11 -2 -9 -23 9 -113 l22 -110 -26 -82 c-14 -46 -30 -83 -34 -83 -12 0 1
58 25 107 11 23 16 47 13 54 -13 19 -34 123 -35 164 0 22 -5 47 -10 55 -16 25
-12 -122 5 -171 15 -40 14 -46 -4 -84 -11 -22 -23 -57 -26 -78 -5 -31 -12 -40
-43 -55 -31 -15 -37 -22 -39 -52 -1 -19 -5 -45 -9 -58 -3 -12 -2 -22 2 -23 5
0 23 -2 40 -3 27 -3 40 6 96 63 64 65 66 67 82 151 l17 85 -30 145 c-17 80
-39 175 -50 212 -11 37 -24 122 -30 190 -18 212 -60 325 -162 434 -56 61 -59
66 -59 116 -1 75 -17 136 -49 188 -21 32 -30 63 -34 106 -6 76 -33 138 -83
193 -48 54 -101 81 -182 92 -53 8 -72 16 -102 43 -21 19 -81 54 -134 80 l-96
46 0 55 c0 48 4 59 26 78 26 23 39 86 19 93 -11 4 -35 -41 -35 -67 0 -9 -7
-22 -15 -29 -8 -7 -15 -25 -15 -41 0 -28 -16 -49 -54 -74 -28 -18 -125 -8
-133 13 -10 24 27 44 70 39 21 -3 35 -1 31 4 -3 5 -28 9 -57 9 -39 0 -48 3
-39 12 13 13 63 16 107 6 l30 -7 -30 14 c-17 9 -52 14 -80 12 -47 -2 -50 -1
-53 24 -2 15 -12 35 -23 45 -10 9 -19 25 -19 36 0 15 8 18 45 18 l45 0 -6 -44
c-6 -39 -4 -45 15 -51 11 -3 25 -3 31 0 15 10 12 35 -5 35 -11 0 -15 12 -15
44 0 50 -13 59 -80 59 -19 0 -25 2 -13 4 16 3 24 14 29 39 6 33 7 34 55 34 26
0 59 5 72 11 49 22 97 -35 97 -117 0 -24 4 -34 13 -31 8 2 12 29 12 85 0 95
-15 124 -85 160 -57 28 -121 29 -178 1z m185 -27 c33 -18 63 -62 63 -91 -1
-23 -2 -24 -11 -8 -6 10 -25 27 -41 37 -29 17 -34 18 -70 3 -31 -12 -49 -13
-88 -6 -35 7 -52 7 -59 -1 -11 -14 -39 -94 -44 -126 -2 -14 -5 6 -6 43 -1 81
13 109 73 139 72 37 126 40 183 10z m-196 -410 c7 -9 1 -6 -14 9 -18 16 -29
39 -33 65 l-5 39 20 -48 c11 -27 25 -56 32 -65z m-457 -634 c-11 -84 -41 -192
-68 -246 -24 -48 -47 -74 -111 -126 -28 -23 -29 -25 -26 -107 2 -84 2 -85 -53
-195 -77 -157 -126 -295 -135 -378 -7 -60 -6 -72 8 -80 9 -5 31 -25 49 -44 25
-26 33 -43 32 -71 0 -60 11 -115 27 -128 8 -6 12 -16 9 -22 -13 -21 -36 3 -50
54 -9 29 -25 63 -36 76 l-20 24 -31 -34 c-31 -33 -31 -36 -25 -100 3 -36 13
-88 21 -115 l15 -50 -25 24 c-25 24 -48 86 -60 166 -4 29 0 59 14 102 12 34
21 69 20 79 -1 31 -48 -80 -55 -130 -7 -51 -24 -75 -24 -33 0 14 7 55 16 93
10 45 14 88 10 127 -3 33 -2 87 4 120 5 34 11 144 14 246 7 265 39 362 159
478 36 34 67 62 70 62 2 0 5 -29 6 -64 1 -35 5 -75 9 -90 l7 -26 51 34 51 34
17 89 c16 79 46 181 75 256 6 15 18 27 26 27 13 0 15 -9 9 -52z m-60 20 c-24
-79 -89 -232 -116 -273 l-31 -50 -13 30 c-20 47 -16 94 16 179 33 90 32 89 85
115 54 27 68 27 59 -1z m722 -147 c83 -21 94 -27 94 -47 0 -16 -44 -89 -59
-99 -10 -6 -120 10 -129 19 -2 3 -7 21 -12 41 -12 51 5 54 118 19 15 -5 14 -4
-1 9 -10 9 -41 21 -68 27 -45 11 -60 26 -42 43 9 10 20 9 99 -12z m-156 -5 c0
-9 -16 -16 -42 -20 -69 -10 -74 -23 -8 -18 l60 4 0 -30 c0 -58 -6 -62 -85 -62
-78 0 -97 11 -110 61 -8 32 5 43 75 62 72 20 110 21 110 3z m-269 -47 c13 -26
7 -24 -22 7 -17 19 -19 23 -6 18 10 -3 22 -15 28 -25z m646 -6 c-3 -10 -5 -4
-5 12 0 17 2 24 5 18 2 -7 2 -21 0 -30z m-67 10 c0 -24 -69 -123 -86 -123 -8
0 0 20 22 52 19 29 37 61 40 70 7 23 24 23 24 1z m-520 -109 c11 -21 20 -49
18 -63 l-3 -26 -23 35 c-19 30 -31 90 -18 90 2 0 14 -16 26 -36z m494 -17 c-8
-25 -22 -51 -30 -58 -27 -22 -17 46 12 81 15 17 28 29 30 27 2 -2 -3 -24 -12
-50z m-290 -29 c18 -26 21 -80 5 -109 -9 -18 -17 -20 -67 -13 -69 8 -92 26
-92 71 0 61 13 73 80 73 50 0 61 -4 74 -22z m197 1 c24 -24 21 -70 -8 -101
-18 -20 -117 -26 -128 -8 -13 20 -10 97 4 114 21 25 105 22 132 -5z m119 -68
c-6 -22 -22 -53 -35 -69 -32 -38 -32 -47 0 -26 24 15 25 15 25 -3 0 -38 -30
-120 -80 -217 -27 -53 -50 -100 -50 -103 0 -3 17 5 38 18 67 40 137 79 145 79
4 0 7 -8 6 -17 0 -13 -35 -35 -111 -73 -94 -46 -120 -55 -178 -58 -91 -5 -124
7 -258 97 -126 86 -128 113 -1 32 l79 -50 -21 42 c-25 48 -74 204 -82 260 -8
55 10 36 28 -31 26 -93 46 -141 87 -214 22 -37 41 -68 44 -68 2 0 -5 19 -15
43 -24 56 -33 95 -24 100 5 2 29 8 56 11 44 7 47 6 47 -16 0 -26 15 -54 22
-42 3 5 8 21 12 37 6 26 9 27 63 25 54 -3 58 -1 79 30 13 18 27 63 34 105 14
84 29 117 67 147 32 25 38 16 23 -39z m-125 -136 c-18 -68 -27 -81 -60 -89
-37 -9 -72 9 -78 40 -9 47 7 72 50 79 21 3 52 12 68 19 17 8 31 13 32 12 2 -2
-4 -29 -12 -61z m-252 35 c45 0 77 -28 77 -68 0 -38 -17 -52 -60 -52 -42 0
-61 17 -85 73 -21 50 -19 60 8 53 12 -3 39 -6 60 -6z m417 -185 c0 -8 -15 -22
-32 -31 l-33 -16 29 31 c34 35 36 36 36 16z m17 -142 c6 -21 21 -69 32 -107
11 -38 28 -133 37 -210 27 -236 -1 -436 -86 -609 -25 -51 -40 -95 -40 -119 0
-48 -11 -48 -34 0 -30 62 -30 133 0 297 23 130 27 180 29 373 3 245 0 261 -53
289 -17 10 -31 22 -29 28 5 15 106 95 120 95 7 0 18 -17 24 -37z m-578 -149
c11 -14 33 -51 47 -80 l27 -55 -31 -67 c-17 -37 -38 -94 -47 -127 -20 -78 -29
-247 -16 -305 10 -43 10 -43 7 23 -8 152 26 291 90 365 104 122 123 -20 45
-349 -11 -47 -25 -126 -31 -175 -6 -49 -15 -105 -21 -126 -9 -36 -48 -93 -49
-72 0 6 -25 49 -55 95 -60 91 -83 149 -86 219 -4 69 1 118 9 98 4 -9 7 81 7
200 0 210 11 321 37 377 13 28 33 22 67 -21z m355 16 c16 -16 -12 -86 -45
-114 -42 -36 -83 -34 -120 5 -16 17 -29 36 -29 42 0 6 -3 8 -6 5 -3 -4 0 -16
6 -28 9 -17 9 -21 0 -15 -19 11 -42 74 -35 95 3 10 14 21 23 24 27 8 195 -3
206 -14z m1013 -122 c-2 -13 -4 -5 -4 17 -1 22 1 32 4 23 2 -10 2 -28 0 -40z
m26 -147 c-7 -10 -13 9 -17 65 l-5 59 12 -60 c7 -33 12 -62 10 -64z m-1185 13
l-3 -39 -5 47 c-3 26 -1 43 3 39 5 -5 7 -26 5 -47z m169 -81 c-4 -69 -17 -154
-36 -233 -36 -145 -37 -166 -11 -240 21 -62 19 -74 -5 -36 -25 38 -29 129 -10
216 32 143 54 285 55 343 0 31 3 57 6 57 4 0 4 -48 1 -107z m-149 -265 c7 -26
16 -113 21 -195 6 -96 17 -170 30 -212 l20 -64 -41 -69 c-74 -124 -83 -182
-48 -303 11 -38 20 -91 20 -116 0 -70 -45 -233 -74 -272 -33 -44 -33 -76 3
-179 27 -74 29 -88 19 -131 l-10 -48 -51 3 -52 3 2 35 c5 67 3 84 -13 108 -25
39 -14 381 15 470 27 81 27 158 0 258 -27 102 -26 113 11 236 18 58 37 155 45
223 7 66 26 161 41 210 20 67 28 121 33 215 l6 125 6 -125 c3 -69 11 -146 17
-172z m1152 221 l-20 -64 5 48 c4 45 22 93 31 85 2 -2 -5 -33 -16 -69z m-2216
22 c-4 -19 -10 -29 -16 -23 -5 5 -4 20 3 36 16 33 21 28 13 -13z m1 -111 c4
-36 3 -50 -3 -40 -12 19 -23 115 -11 103 4 -4 11 -33 14 -63z m2182 48 c-3 -8
-6 -5 -6 6 -1 11 2 17 5 13 3 -3 4 -12 1 -19z m-2220 -45 c-3 -10 -5 -2 -5 17
0 19 2 27 5 18 2 -10 2 -26 0 -35z m76 -28 c5 -49 5 -49 -8 -20 -8 17 -14 46
-14 65 0 49 15 18 22 -45z m2081 10 c-15 -20 -29 -33 -32 -30 -5 5 46 65 55
65 2 0 -8 -16 -23 -35z m-2043 -82 c13 -16 12 -17 -3 -4 -10 7 -18 15 -18 17
0 8 8 3 21 -13z m23 -39 c3 -8 2 -12 -4 -9 -6 3 -10 10 -10 16 0 14 7 11 14
-7z m1201 -345 c9 -17 15 -40 14 -52 -2 -12 2 -32 9 -44 19 -34 14 -72 -13
-98 -31 -32 -60 -32 -81 1 -14 21 -15 31 -6 61 9 29 8 40 -3 57 -22 31 -19 72
7 90 34 24 56 19 73 -15z m-155 -243 c-21 -51 -39 -137 -43 -211 l-2 -50 -9
60 c-11 74 3 148 38 204 34 53 40 52 16 -3z m184 17 c-4 -16 -19 -52 -34 -80
-16 -29 -24 -53 -20 -53 4 0 11 7 14 16 4 9 9 14 12 11 12 -12 -22 -99 -110
-280 -52 -106 -111 -228 -131 -272 -25 -53 -40 -74 -42 -62 -3 10 2 26 11 36
21 23 119 269 156 390 16 53 38 121 49 151 11 30 20 64 21 76 0 11 6 28 13 38
12 16 13 13 10 -20 -4 -39 -4 -39 23 19 30 63 38 71 28 30z m45 -112 c1 -118
-6 -98 -12 34 -3 64 -2 98 2 80 5 -16 9 -68 10 -114z m-744 27 c-4 -18 -13
-71 -21 -118 l-13 -85 4 80 c3 76 19 155 32 155 3 0 2 -15 -2 -32z"/>
<path d="M1770 3433 c-23 -34 -25 -45 -23 -146 0 -60 5 -113 11 -119 14 -14
62 147 62 207 0 54 -8 95 -19 95 -3 0 -17 -17 -31 -37z"/>
<path d="M1701 3344 c-20 -44 -35 -174 -22 -187 8 -8 11 -2 11 23 0 19 6 69
14 110 8 41 13 76 12 77 -2 2 -8 -9 -15 -23z"/>
<path d="M1645 3241 c-17 -52 -20 -104 -16 -278 1 -72 -4 -144 -15 -203 -23
-125 -5 -138 25 -18 37 149 47 262 31 361 -7 49 -10 107 -6 136 4 28 5 51 2
51 -2 0 -12 -22 -21 -49z"/>
<path d="M2905 2720 c25 -142 27 -191 21 -420 -3 -135 -8 -265 -11 -290 l-5
-45 17 35 c35 73 27 585 -12 700 -8 25 -13 34 -10 20z"/>
<path d="M2385 1920 c8 -28 16 -55 19 -58 10 -9 7 23 -5 59 -19 56 -29 56 -14
-1z"/>
<path d="M2660 4602 c0 -17 25 -32 55 -32 36 0 60 14 51 29 -8 12 -106 15
-106 3z"/>
<path d="M2690 4155 c-21 -63 -22 -98 -2 -58 13 25 34 114 28 120 -2 2 -14
-26 -26 -62z"/>
<path d="M2179 4079 l-24 -20 30 17 c39 24 40 24 28 24 -6 0 -21 -9 -34 -21z"/>
<path d="M3210 4055 c19 -22 39 -44 44 -50 5 -5 4 -1 -2 10 -6 11 -25 33 -44
50 l-33 30 35 -40z"/>
<path d="M2234 3741 c19 -29 98 -63 158 -67 l63 -3 -53 9 c-29 6 -76 22 -105
37 -68 37 -71 37 -63 24z"/>
<path d="M2943 3729 c-6 -6 -37 -19 -69 -29 -51 -16 -55 -19 -26 -19 39 -1 92
19 111 42 15 19 2 24 -16 6z"/>
<path d="M3641 2899 c-1 -37 30 -141 36 -123 2 7 -5 45 -16 85 -16 60 -20 67
-20 38z"/>
</g>
</svg>